<?xml version="1.0" encoding="UTF-8" standalone="no"?>
<svg
   xmlns:dc="http://purl.org/dc/elements/1.1/"
   xmlns:cc="http://creativecommons.org/ns#"
   xmlns:rdf="http://www.w3.org/1999/02/22-rdf-syntax-ns#"
   xmlns:svg="http://www.w3.org/2000/svg"
   xmlns="http://www.w3.org/2000/svg"
   xmlns:sodipodi="http://sodipodi.sourceforge.net/DTD/sodipodi-0.dtd"
   xmlns:inkscape="http://www.inkscape.org/namespaces/inkscape"
   version="1.1"
   id="svg2"
   xml:space="preserve"
   width="588.83734"
   height="482.41321"
   viewBox="0 0 588.83734 482.41321"
   sodipodi:docname="League Logo F White FINAL.svg"
   inkscape:version="0.92.4 (5da689c313, 2019-01-14)"><metadata
     id="metadata8"><rdf:RDF><cc:Work
         rdf:about=""><dc:format>image/svg+xml</dc:format><dc:type
           rdf:resource="http://purl.org/dc/dcmitype/StillImage" /><dc:title></dc:title></cc:Work></rdf:RDF></metadata><defs
     id="defs6" /><sodipodi:namedview
     pagecolor="#ffffff"
     bordercolor="#666666"
     borderopacity="1"
     objecttolerance="10"
     gridtolerance="10"
     guidetolerance="10"
     inkscape:pageopacity="0"
     inkscape:pageshadow="2"
     inkscape:window-width="3000"
     inkscape:window-height="1949"
     id="namedview4"
     showgrid="false"
     inkscape:zoom="0.87864018"
     inkscape:cx="295.32672"
     inkscape:cy="50.384654"
     inkscape:window-x="-14"
     inkscape:window-y="-14"
     inkscape:window-maximized="1"
     inkscape:current-layer="g10" /><g
     id="g10"
     inkscape:groupmode="layer"
     inkscape:label="ink_ext_XXXXXX"
     transform="matrix(1.3333333,0,0,-1.3333333,2.9707203e-6,482.41321)"><g
       id="g12"
       transform="matrix(0.1,0,0,0.1,-140.05799,-207.97308)"><path
         d="m 5816.86,2165.09 c 0,16.22 -16.23,32.45 -45.42,51.93 -29.22,19.45 -55.19,48.67 -55.19,48.67 0,0 -3.22,6.48 -3.22,22.71 0,16.22 9.71,29.22 -22.74,42.19 -32.45,12.97 -16.22,30.03 -19.45,48.67 -3.26,18.67 15.42,45.44 15.42,64.9 0,19.48 0.8,42.19 -8.94,58.41 -9.74,16.22 -6.48,77.89 -6.48,101.41 0,23.54 -6.49,99.79 -13,122.5 -6.48,22.71 -16.22,9.74 -22.71,25.96 -6.48,16.23 -9.74,22.71 -9.74,29.2 0,6.48 13,58.41 9.74,77.89 -3.25,19.45 6.49,38.93 9.74,51.9 3.26,13 3.26,51.93 3.26,68.15 0,16.23 9.71,22.71 9.71,32.45 0,9.74 -11.35,68.15 -16.22,81.12 -4.87,13 -19.45,152.53 -19.45,183.37 0,30.8 -14.61,55.15 -14.61,55.15 0,0 11.35,9.74 12.96,17.84 1.65,8.13 13,21.09 13,40.57 0,19.48 28.38,48.3 31.64,87.23 3.23,38.94 5.02,78.27 0.15,107.46 -4.87,29.2 -9.89,71.21 -29.37,127.98 -19.45,56.8 -17.84,68.15 -17.84,68.15 l 27.58,11.56 c 0,0 -17.03,43.8 -26.77,72.99 -9.74,29.22 -42.19,94.12 -66.51,108.73 -24.35,14.61 -100.17,122.19 -109.54,126.68 -9.36,4.5 -13.14,13.63 -11.78,22.28 1.32,8.61 0.69,23.43 0.69,23.43 0,0 3.98,3.92 12.19,13.74 1.5,1.82 21.33,0.58 25.3,1.41 3.98,0.84 9.68,13.03 9.68,13.03 0,0 29.66,2.68 33.43,13.95 3.78,11.26 21.04,14.69 18.73,22.47 -2.3,7.79 10.15,11.47 11.88,17.06 1.73,5.6 14.98,17.99 12.85,30.87 -2.13,12.91 9.22,14.58 6.91,22.36 -2.3,7.78 9.86,18.16 7.09,27.49 -2.76,9.34 6.89,22.36 4.62,30.14 -2.31,7.79 -0.52,30.29 -1.91,34.96 -1.38,4.67 -3.34,22.71 -8.3,28.01 -4.95,5.3 -10.49,23.98 -15.9,30.84 -3.03,3.8 -6.63,16.62 -11.13,20.37 -4.49,3.74 -13.94,12.79 -15.76,19.02 -1.87,6.22 -16.43,15.44 -21.56,15.62 -5.12,0.17 -21.55,15.62 -25.41,22.94 -3.86,7.32 -30.15,4.61 -37.75,7.43 -7.58,2.82 -13.81,0.98 -18.94,1.15 -5.13,0.18 -17.4,1.62 -23.22,4.12 -5.82,2.51 -16.89,-5.85 -26.46,-7.83 -9.56,-1.99 -14.52,3.31 -23.19,4.12 -8.71,0.8 -17.3,-10.2 -28.19,-13.43 -10.89,-3.23 -5.3,-4.93 -20.95,-12.11 -15.65,-7.17 -13.74,3.55 -13.63,-8.27 0.12,-11.81 -35.67,-22.42 -35.85,-27.55 -0.17,-5.12 -25.21,-17.63 -21.99,-28.5 3.2,-10.89 -17.63,-20.46 -17.98,-30.71 -0.34,-10.26 -1.61,-17.41 -0.72,-28.99 0.9,-11.59 -5.13,-37.04 -2.82,-44.82 2.3,-7.78 -3.32,-22.99 -4.96,-40.4 -1.61,-17.4 1.85,-6.22 15.62,-24.15 13.78,-17.89 16.14,-33.02 24.03,-42.53 7.9,-9.51 37.73,-28.85 48.91,-32.31 11.18,-3.45 -0.52,-15.38 5.82,-25.35 0,0 0.46,-7.93 -4.53,-22.4 -4.98,-14.49 -25.41,-34.17 -25.41,-34.17 l -16.54,-0.49 c 0,0 -28.71,-19.97 -37.44,-25.3 -8.76,-5.36 -95.61,-18.19 -105.32,-27.93 -9.75,-9.74 -35.71,-29.19 -48.68,-74.63 -12.99,-45.42 -17.86,-86 -17.86,-102.22 0,-16.22 -4.87,-27.58 -4.87,-27.58 l 8.12,-1.61 c 0,0 -4.87,-27.61 -3.25,-60.06 1.64,-32.45 9.74,-113.57 12.99,-149.27 3.23,-35.68 14.58,-47.03 21.07,-58.38 6.51,-11.39 34.09,-55.19 48.7,-79.51 14.58,-24.35 50.29,-56.8 50.29,-56.8 0,0 -3.26,-29.19 -3.26,-38.93 0,-9.74 -3.23,-53.54 -4.87,-68.15 -1.61,-14.62 -16.2,-61.65 -14.58,-90.46 1.61,-28.79 -1.62,-62.05 -1.62,-73.4 0,-11.35 -17.86,-95.73 -17.86,-121.7 0,-25.96 4.87,-71.38 6.48,-81.12 1.64,-9.74 5.53,-68.78 6.83,-75.93 1.3,-7.15 -3.26,-23.05 -3.89,-30.52 -0.66,-7.46 3.23,-44.12 1.93,-46.71 -1.3,-2.59 -16.22,-34.41 -17.52,-44.15 -1.3,-9.71 2.59,-26.6 1.96,-31.15 -0.66,-4.52 -21.41,-30.49 -23.37,-49.97 -1.96,-19.45 -6.49,-44.12 -7.15,-58.41 -0.63,-14.27 -1.29,-76.48 -1.29,-88.27 0,-11.76 -5.85,-38.27 -6.49,-46.71 -0.63,-8.44 0,-17.52 0.64,-35.04 0.66,-17.52 -10.38,-79.19 -12.31,-85.04 -1.96,-5.82 -9.74,-48.68 -11.04,-62.31 -1.29,-13.63 -1.96,-42.18 3.23,-59.71 5.19,-17.52 9.11,-22.7 8.44,-27.89 -0.63,-5.19 -5.18,-18.82 -5.18,-26.6 0,-7.81 -22.08,-22.07 -31.82,-35.07 -9.71,-12.97 -11.01,-33.08 -1.93,-44.78 9.08,-11.67 78.53,-1.3 103.83,0 25.33,1.32 28.56,12.33 33.11,21.44 4.53,9.08 32.45,11.04 36.34,14.93 3.89,3.89 -1.3,26.59 -1.3,26.59 0,0 12.97,37.32 12.97,48.68 0,11.35 9.74,25.96 9.74,42.18 0,16.23 -19.45,32.45 -19.45,45.45 0,12.97 16.22,12.97 22.71,22.71 6.48,9.74 7.29,58.41 12.97,77.86 5.67,19.48 0,107.09 0,123.31 0,16.23 29.22,90.86 32.44,113.6 3.26,22.71 -3.22,38.93 -6.48,48.67 -3.26,9.74 8.93,45.42 8.93,45.42 0,0 13.78,51.93 17.03,68.15 3.26,16.22 23.52,102.22 23.52,116.83 0,14.58 20.29,66.51 25.16,79.5 4.87,12.97 27.58,50.29 32.45,60.03 4.87,9.74 14.61,6.48 21.09,4.87 6.48,-1.64 14.61,-1.64 19.48,-1.64 4.87,0 8.1,-27.58 8.1,-40.55 0,-13 6.48,-55.16 9.74,-69.77 3.25,-14.61 19.48,-64.89 24.35,-73.02 4.87,-8.1 8.1,-69.77 8.1,-77.86 0,-8.13 17.86,-35.71 17.86,-49.51 0,-13.78 3.23,-34.87 3.23,-44.61 0,-9.74 -1.61,-34.06 0,-60.03 1.61,-25.96 11.35,-110.34 14.61,-134.66 3.23,-24.35 35.71,-139.53 42.19,-155.76 6.48,-16.25 -11.35,-77.89 -6.48,-107.08 4.84,-29.22 24.32,-11.39 29.19,-16.26 4.87,-4.84 -1.62,-11.35 -1.62,-22.7 0,-11.36 0.95,-24.99 1.62,-28.22 0.63,-3.25 -5.19,-25.33 -0.61,-29.85 4.58,-4.55 52.54,-5.22 84.98,-8.44 32.45,-3.26 64.9,-16.23 103.83,-13 38.94,3.26 58.42,3.26 58.42,19.48 m -769.69,122.56 c -6.57,14.15 -16.19,21.9 -21.09,29.71 -4.87,7.84 -8.04,7.78 -12.94,15.62 -4.87,7.81 -3.31,9.42 -8.18,15.68 -4.84,6.25 -21.1,29.71 -21.1,29.71 l -20.77,11.9 c 0,0 -5.08,17.72 -6.75,22.45 -1.64,4.69 -5.18,25.24 -6.8,28.35 -1.64,3.14 -0.14,7.93 -5.1,18.91 -4.93,11.01 -3.54,22.1 -3.54,22.1 l -4.76,-0.09 c 0,0 -3.23,26.86 -7.38,60.03 -4.14,33.17 -5.64,52.13 -5.64,52.13 0,0 14.09,8.96 18.7,16.17 4.64,7.2 -19.77,45.56 -20,58.21 -0.23,12.68 -19.91,51.9 -21.64,61.35 -1.76,9.48 -17.93,28.18 -14.99,40.89 2.97,12.74 2.54,36.46 0.78,47.52 -1.79,11.04 -13.46,44.87 -15.3,59.88 -1.85,15.02 -18.16,42.42 -17,67.75 1.12,25.36 -7.29,53.72 -7.58,71.12 -0.32,17.41 -8.82,51.27 -7.44,63.58 1.36,12.27 -8.47,31.12 -7.2,50.14 1.24,18.99 -5.25,28.38 -4.01,47.4 1.24,19.02 1.65,41.18 -0.86,49.05 -2.51,7.87 -12.77,28.27 -12.77,28.27 l 7.44,4.87 c 0,0 -19.05,4.44 -19.25,15.5 -0.2,11.07 -5.19,25.25 -5.33,33.14 l -0.15,7.93 c 0,0 -9.59,6.16 7.81,6.45 17.41,0.32 34.9,-4.12 41.18,-0.86 6.25,3.28 42.28,26.08 49.94,40.46 7.67,14.38 42.71,92.56 53.52,108.55 10.77,16.02 33.54,72.62 36.45,86.51 2.94,13.89 16.45,55.3 16.19,71.12 -0.28,15.82 -20.05,59.8 -23.48,75.56 -3.46,15.76 -31.15,61.21 -36.02,69.02 -4.9,7.84 -22.65,26.51 -24.35,34.41 -1.73,7.89 -15.1,25.44 -15.1,25.44 0,0 9.74,9.28 9.65,14.04 -0.09,4.75 -9.71,12.47 -16.2,20.28 -6.45,7.81 -40.4,48.36 -42.13,56.25 -1.7,7.9 -19.22,13.92 -24.09,20.18 -4.84,6.22 -22.59,24.92 -22.59,24.92 0,0 -22.22,2.77 -28.59,5.82 -6.39,3.06 -48.15,30.46 -50.97,108.33 -1.39,38.56 -1.13,100.2 -6.37,137.37 -7.32,51.99 -19.86,86.91 -26.4,111.21 -9.13,33.92 -45.3,97 -120.51,92.96 -86.11,-4.58 -115.94,-65.5 -115.94,-120.51 0,-46.97 -16.36,-91.47 -16.36,-91.47 0,0 -11.19,4.96 -11.04,-3.34 0.14,-8.33 10.49,-33.05 10.49,-33.05 0,0 -2.05,-45.62 -21.56,-91.21 -31.55,-73.66 -29.68,-116.11 -29.68,-116.11 0,0 -34.06,-7.89 -41.87,-14.35 -7.78,-6.45 -45.16,-41.93 -46.68,-45.13 -1.53,-3.19 -30.87,-46.45 -35.42,-56.02 -4.58,-9.56 -27.95,-31.75 -27.95,-31.75 l 1.67,-5.1 c 0,0 -48.07,-57.84 -52.65,-67.41 -4.58,-9.59 -49.39,-72.1 -57.06,-86.48 -7.66,-14.38 -10.29,-44.49 -6.77,-65.01 3.51,-20.52 39.71,-99.02 62.53,-136.62 22.83,-37.58 57.12,-97.15 63.6,-106.51 6.49,-9.4 14.53,-15.59 32.22,-32.68 17.72,-17.12 36.86,-25.47 51.24,-33.95 14.41,-8.44 30.25,-10.54 30.25,-10.54 l -10.4,-37.38 6.4,-3.83 c 0,0 -12.91,-76.22 -15.88,-88.93 -2.94,-12.71 -24.64,-174.55 -26.83,-185.67 -2.16,-11.13 -10.23,-47.67 -11.67,-57.18 -1.41,-9.53 -8.67,-46.07 -11.67,-55.61 -3,-9.54 -0.75,-49.08 -2.16,-58.62 -1.41,-9.51 -4.24,-28.56 -10.32,-42.91 -6.08,-14.35 -30.89,-43.28 -30.75,-52.76 0.18,-9.51 -16.94,-71.53 -18.84,-76.31 -1.9,-4.78 -3.37,-11.15 -3.37,-11.15 l 13.66,-12.02 -16.55,-94.09 -6.34,-0.11 c 0,0 -5.56,-44.41 -8.58,-52.36 -3.03,-7.99 -2.91,-36.49 -8.62,-49.25 -5.73,-12.74 -18.18,-24.04 -21.67,-28.85 -3.49,-4.81 -21.79,-20.98 -27.95,-30.57 -6.17,-9.6 -27.81,-40.06 -32.42,-48.04 -4.61,-8.01 -24.55,-43.17 -32.34,-51.24 -7.78,-8.04 -12.27,-22.36 -5.85,-27 6.4,-4.64 46.03,-7.12 77.73,-9.71 31.69,-2.62 72.85,-1.9 82.12,10.92 9.25,12.82 2.68,26.94 16.86,30.37 14.21,3.4 36.25,10.12 39.31,16.52 3.05,6.36 2.85,17.46 -2.08,28.44 -4.95,11.01 -8.99,15.68 -8.99,15.68 0,0 -1.09,17.4 -1.26,26.88 -0.18,9.51 -8.3,22.02 -5.22,26.83 3.08,4.81 2.71,26.94 4.96,33.31 2.27,6.37 8.21,27.84 15.9,41.44 7.67,13.6 14.99,47.75 14.99,47.75 l -7.96,3.03 c 0,0 18.51,27.23 21.5,36.77 3,9.57 19.8,45.47 19.8,45.47 0,0 18.99,-0.46 39.57,0.69 20.54,1.16 26.82,4.41 34.72,4.56 7.93,0.14 24.58,-2.74 26.48,2.04 1.91,4.79 -0.46,49.08 5.45,72.91 5.94,23.86 8.44,61.9 9.71,79.31 1.27,17.43 26.31,125.53 32.33,143.05 6.03,17.49 23.98,77.17 26.98,86.33 3.02,9.14 25.44,83.95 28.53,88.73 3.08,4.81 15.13,39.86 16.6,46.2 1.47,6.36 1.15,25.35 5.87,27.03 4.7,1.64 17.44,-1.3 23.89,-9.08 6.46,-7.81 12.83,-31.44 16.46,-36.14 3.66,-4.67 16.83,-56.68 20.11,-62.96 3.26,-6.26 26.54,-70.75 29.89,-80.2 3.31,-9.45 26.97,-94.49 28.67,-100.81 1.67,-6.31 15.3,-61.46 15.39,-66.22 0.08,-4.72 7.32,-56.85 7.46,-64.75 0.15,-7.93 0.41,-23.75 2.05,-26.89 1.64,-3.14 4.9,-8.21 1.9,-18.15 -3,-9.94 -0.84,-41.96 -0.84,-41.96 l 2.08,-28.47 c 0,0 28.5,-1.1 31.67,-1.04 3.17,0.06 19.05,-2.82 27.03,-7.43 8.01,-4.61 23.86,-5.91 23.86,-5.91 l 17.46,-2.48 c 0,0 14.79,-32.19 23.12,-55.39 8.32,-23.19 15.01,-44.06 15.01,-44.06 l -4.7,-3.25 c 0,0 5.36,-34.73 7.18,-47.35 1.78,-12.62 7.06,-42.62 7.12,-45.79 0.05,-3.17 4.98,-12.57 4.98,-12.57 0,0 1.87,-17.37 0.4,-23.74 -1.47,-6.34 -3.48,-26.97 -5.41,-30.17 -1.91,-3.2 -3.12,-25.36 -1.44,-30.09 1.67,-4.72 31.92,-15.27 39.88,-18.3 7.98,-3.02 0.34,-19.79 6.8,-26.8 6.45,-7 46.11,-11.84 92.01,-11.06 45.88,0.8 64.81,4.32 63,16.94 -1.79,12.62 -4.79,3.08 -6.63,17.29 -1.82,14.21 -9.88,21.99 -16.46,36.11 m -637.84,1266.26 c 0.61,-34.81 -10.6,-117.31 -10.6,-117.31 0,0 -21.9,-14.62 -31.38,-16.37 -9.48,-1.76 -37.55,-26 -50.2,-26.2 -12.65,-0.23 -55.48,95.59 -68.59,120.69 -13.11,25.1 -21.04,116.74 -21.04,116.74 0,0 57.52,59.59 69.86,78.78 12.33,19.22 23.14,35.25 23.14,35.25 0,0 12.5,8.12 25.18,8.33 0,0 12.89,-12.42 27.27,-20.09 14.38,-7.67 18.01,-34.52 18.38,-56.65 0.38,-22.17 17.38,-88.36 17.98,-123.17 m 383.88,-137.34 c -8.01,6.19 -28.85,20.08 -28.85,20.08 0,0 1.13,25.36 0.87,41.18 -0.29,15.82 -7.61,72.65 -7.96,93.23 -0.37,20.57 12.28,112.61 16.69,131.69 4.44,19.05 22.88,58.59 27.46,59.83 15.74,4.23 19.08,-5.22 30.35,-16.08 11.26,-10.9 32.59,-53.26 37.54,-65.85 4.99,-12.57 30.75,-37.44 35.65,-46.86 4.93,-9.42 -2.71,-25.36 -5.62,-41.24 -2.88,-15.87 -25.04,-105.7 -31.01,-127.17 -5.96,-21.47 -38.52,-59.24 -44.81,-62.53 -6.28,-3.26 -22.3,7.55 -30.31,13.72 m -655.42,1752.18 c 0,0 268.4,276.7 270.1,281.31 -348.83,213.97 -783.22,-21.04 -1114.39,175.64 l 19.94,54.61 -48.12,17.52 -371.63,-1017.42 c -7,0.89 -13.66,0.37 -19.25,-2.02 -24.81,-10.63 -49.6,-85.04 -46.05,-102.73 2.04,-10.26 8.87,-19.28 17.61,-25.85 l -25.22,-68.99 48.13,-17.55 23.71,64.87 c 15.28,-10.67 30.95,-26.46 44.78,-42.02 3.12,-3.52 -6.88,-14.24 -3.97,-17.58 5.16,-5.93 15.73,-14.64 19.94,-19.39 2.28,-2.57 20.31,-23.72 24.41,-29.4 34.17,-47.37 97.11,-161.17 119.24,-167.48 24.79,-7.09 112.62,-112.94 130.34,-116.48 17.7,-3.55 69.42,-28.07 87.12,-47.55 17.72,-19.48 74.52,-31.12 93.34,-98.58 2.85,-10.29 5.85,-20.75 8.33,-29.37 2.3,-27.49 5.93,-54.32 7.23,-70.11 2.22,-26.63 -17.75,-105.1 -13.31,-128.67 4.43,-23.57 -13.29,-65.44 -33.26,-98.73 -19.97,-33.25 -10.69,-47.43 -2.22,-112.01 4.96,-9.94 -32.01,-113.83 -32.01,-113.83 0,0 4.95,-31.47 4.95,-38.07 0,-6.62 8.3,-19.88 1.67,-33.14 -6.62,-13.22 11.59,-21.52 6.63,-33.11 -4.98,-11.58 16.54,-14.9 13.23,-29.79 -3.32,-14.9 -4.96,-23.2 -6.63,-34.79 -1.64,-11.58 8.3,-6.63 6.63,-33.11 -1.64,-26.48 31.47,-112.59 31.47,-134.11 0,-21.53 14.9,-79.51 19.88,-102.68 4.96,-23.2 8.27,-29.8 6.6,-49.68 -1.64,-19.86 -1.64,-33.11 -1.64,-41.38 0,-8.3 11.58,-8.3 6.62,-24.84 -4.98,-16.57 9.95,-29.83 3.32,-38.1 -6.63,-8.27 9.91,-24.84 4.96,-29.8 -4.96,-4.98 12.1,-28.99 12.1,-46.36 0,-17.38 -3.32,-34.79 -3.32,-53 0,-18.21 13.26,-139.1 13.26,-139.1 0,0 -29.82,8.3 -29.82,-3.31 0,-11.59 26.51,-69.54 28.15,-87.75 1.67,-18.21 31.47,-99.36 31.47,-114.26 0,-14.9 -3.32,-28.16 4.95,-53 8.3,-24.84 8.3,-49.68 6.63,-61.26 -1.64,-11.59 -24.84,-49.68 -34.78,-66.23 -9.91,-16.57 -28.15,-33.14 -29.8,-44.72 -1.64,-11.58 -6.62,-33.11 1.65,-44.7 8.29,-11.58 102.67,-19.88 120.88,-1.67 18.22,18.22 10.78,31.47 24.84,39.74 14.1,8.3 29.8,11.62 34.79,28.16 4.95,16.57 6.62,69.56 6.62,91.09 0,21.52 -1.67,38.07 -3.31,56.28 -1.67,18.21 -6.63,78.67 -6.63,112.62 0,33.94 -3.31,54.63 -3.31,74.49 0,19.88 1.64,81.15 1.64,87.78 v 23.17 l -11.58,-3.32 c 0,0 -4.12,48.04 -4.12,64.61 0,16.54 -4.15,74.49 -4.15,86.08 0,11.61 4.15,14.92 4.15,28.15 0,13.26 -9.11,19.89 -4.15,28.16 4.95,8.27 14.89,11.61 14.89,23.19 0,11.59 -4.95,11.59 -4.95,23.17 0,11.59 1.64,31.47 1.64,31.47 0,0 -3.31,19.86 -4.96,36.43 -1.67,16.57 -2.47,81.15 -2.47,99.36 0,18.21 2.47,117.54 2.47,137.43 0,19.85 0,71.21 1.65,84.46 1.67,13.23 -1.65,28.13 3.31,28.13 4.99,0 28.16,-48.01 28.16,-48.01 0,0 23.16,-46.37 33.11,-71.21 9.94,-24.84 43.05,-91.06 59.62,-129.16 16.54,-38.07 9.91,-71.21 16.54,-86.1 6.63,-14.9 24.84,-43.06 23.2,-49.69 -1.67,-6.62 18.21,-20.69 18.21,-41.38 0,-20.72 8.27,-29.82 11.59,-51.35 3.31,-21.53 26.51,-36.42 26.51,-52.13 0,-15.73 13.22,-38.93 16.54,-47.2 3.31,-8.3 9.94,-54.64 9.94,-66.25 0,-11.59 21.53,-72.85 21.53,-72.85 0,0 -13.26,0 -11.59,-8.27 1.64,-8.3 16.54,-61.27 24.84,-74.53 8.27,-13.25 9.92,-16.57 19.86,-54.63 9.94,-38.1 9.94,-57.96 21.52,-77.84 11.59,-19.88 14.9,-31.47 14.9,-51.32 0,-19.89 9.95,-24.84 9.95,-41.41 0,-16.54 -1.65,-28.16 -3.32,-43.89 -1.64,-15.71 16.57,-37.23 16.57,-50.49 0,-13.26 9.91,-39.74 9.91,-48.04 0,-8.27 6.63,-23.17 19.89,-28.12 13.25,-4.99 101,-13.26 114.26,6.6 13.25,19.88 -6.63,29.82 -14.9,71.2 -8.3,41.41 -33.14,62.94 -31.47,92.74 1.67,29.79 -4.96,154 -4.96,193.74 0,39.73 -8.29,120.88 -11.61,130.83 -3.28,9.91 -26.48,-4.99 -26.48,-4.99 0,0 -13.26,21.53 -16.57,41.41 -3.29,19.86 -16.54,71.21 -16.54,82.79 0,11.59 -8.3,33.11 -14.09,57.95 -5.8,24.84 -10.75,36.43 -10.75,43.06 0,6.63 -4.96,26.48 -4.96,26.48 0,0 -6.63,19.88 -6.63,28.15 0,8.3 -17.4,0 -18.24,23.2 -0.81,23.17 -8.27,33.11 -6.6,39.74 1.64,6.63 -11.61,18.21 -9.94,28.16 1.64,9.91 -18.21,39.74 -6.63,86.1 11.59,46.37 -21.52,132.48 -23.17,167.23 -1.67,34.78 -24.84,97.69 -14.92,107.63 9.94,9.94 -11.59,18.21 -3.29,28.16 8.27,9.94 -23.2,29.79 -19.05,41.41 4.12,11.58 4.12,28.12 0.84,35.59 -3.34,7.46 9.91,14.06 21.5,28.96 11.61,14.92 -3.29,34.78 26.51,49.68 29.79,14.93 34.75,-13.23 61.26,3.31 26.49,16.57 48.99,57.12 75.48,86.94 26.51,29.8 43.74,76.17 55.32,98.53 11.62,22.33 1.24,31.93 1.24,60.08 0,28.16 -14.46,44.24 -17.78,74.04 -3.31,29.82 -26.51,119.21 -39.74,162.27 -13.25,43.05 -23.19,91.09 -54.66,130.83 -31.44,39.74 -46.77,40.54 -64.98,50.48 -18.22,9.92 -44.61,20.47 -62.83,27.93 -18.21,7.43 -34.89,13.95 -34.89,13.95 0,0 3.74,68.26 7.06,91.43 3.31,23.2 -4.96,109.31 -4.96,135.79 0,26.48 -32.3,122.53 -62.94,150.69 -30.63,28.15 -64.58,31.46 -82.79,33.11 -18.21,1.64 -29.8,-8.27 -29.8,-8.27 -24.84,0 -67.89,-8.27 -91.09,-61.27 -23.17,-52.99 -41.38,-110.95 -43.05,-188.78 -1.64,-77.84 -4.96,-86.11 -24.81,-122.53 -2.19,-3.98 -4.47,-6.6 -6.69,-9.97 -28.53,8.15 -97.66,8.64 -118.38,17.55 -24.81,10.63 -117.72,56.57 -142.5,86.68 -24.81,30.08 -51.32,44.03 -90.31,81.23 -25.19,24.04 -82.54,91.27 -121.56,127.29 -9.76,8.99 -14.2,-4.09 -21.58,3.2 -8.73,8.67 -15.36,15.79 -18.76,20.55 -17.72,24.81 -11.67,54.43 -18.76,82.79 -1.27,4.98 -3.83,9.62 -6.92,14 l 97.58,267.14 c 334.11,-208.98 779.42,42.68 1114.77,-175.47 z M 3851.43,3720.1 c 2.48,29.8 -0.37,70.4 14.52,100.2 14.9,29.79 27.73,94.29 27.73,94.29 0,0 35.85,-48.82 46.59,-84.32 10.75,-35.48 12.17,-78.73 18.79,-100.23 6.63,-21.53 6.63,-38.1 6.63,-38.1 0,0 -26.51,-57.95 -54.64,-77.83 -28.15,-19.86 -70.6,-37.98 -70.6,-37.98 0,0 8.27,50.17 0,70.02 -8.3,19.89 8.5,44.15 10.98,73.95 m -172.27,1511.35 98.07,-35.68 -263.22,-277.39 86.68,238.15 -98.06,35.67 263.21,277.37 z m -844.92,-999.96 c 0,0 -26.83,56.83 -31.1,64.32 -4.29,7.49 -7.14,12.02 -15.73,27 -8.56,15.02 -29.71,12.68 -38.53,18.85 -8.85,6.17 -2.51,16.31 -23.66,13.98 -21.15,-2.31 -18.24,-5.36 -31.67,-1.99 -13.46,3.34 -8.99,1.73 -21.15,-2.34 -12.16,-4.03 -9.13,-3.77 -19.91,-11.18 -10.78,-7.43 -12.39,-11.44 -18.47,-12.71 -6.06,-1.29 -15.34,-21.67 -20.32,-24.46 -4.99,-2.8 -17.46,-28.96 -28.13,-33.06 -10.66,-4.12 -9.51,-15.21 -9.88,-27.34 -0.38,-12.16 11.38,-21.36 10.95,-34.61 -0.4,-13.26 2.51,-16.31 5.33,-22.28 2.83,-5.99 14.44,-19.59 17.18,-28.53 2.73,-8.93 18.64,-30.03 24.4,-37.58 5.8,-7.55 13.89,-37.28 20.95,-52.24 7.06,-14.93 26.08,-33.2 36.4,-40.14 10.32,-6.95 17.84,-7.18 17.84,-7.18 0,0 -37.75,-17.46 -39.25,-25.56 -1.5,-8.13 -21.07,-32.07 -28.59,-33.89 -7.52,-1.84 -7.14,-2.97 -16.54,-8.85 -9.39,-5.9 -6.02,-2.94 -15.04,-8.84 -9.05,-5.91 -31.61,-13.26 -37.64,-16.23 -5.99,-2.94 -18.04,-8.82 -30.08,-33.89 -12.05,-25.04 -35.73,-78.09 -37.61,-94.29 -1.87,-16.22 -15.42,-42.19 -18.07,-54 -2.62,-11.79 -7.52,-73.66 -7.52,-81.03 0,-7.38 4.53,-20.64 4.53,-30.95 0,-10.32 7.52,-25.05 10.54,-33.89 3,-8.82 15.05,-27.98 24.07,-29.45 9.02,-1.5 31.21,-2.22 36.1,-2.6 4.9,-0.37 14.3,-4.78 14.3,-4.78 0,0 2.25,-8.85 2.25,-11.79 0,-2.94 -24.07,-44.2 -33.09,-67.78 -9.05,-23.57 -19.56,-25.04 -16.57,-50.11 3.03,-25.04 6.03,-29.45 6.03,-44.2 0,-14.73 1.49,-64.84 1.49,-75.13 0,-10.32 -12.01,-32.42 -12.01,-35.39 0,-2.94 -4.53,-25.04 -1.53,-30.92 3.03,-5.91 33.28,-22.1 33.28,-22.1 0,0 -12.04,-79.6 -12.04,-100.23 0,-20.6 -10.52,-159.13 -9.02,-178.29 1.5,-19.17 1.5,-69.25 0,-95.76 -1.5,-26.54 -18.21,-48.65 -18.21,-81.07 0,-32.41 10.69,-76.07 9.19,-104.08 -1.53,-27.98 -9.42,-63.34 -13.55,-76.63 -4.14,-13.25 -1.49,-55.24 -7.52,-76.97 -6.02,-21.76 -31,-43.48 -36.28,-58.58 -5.27,-15.11 -16.54,-10.32 -25.59,-26.52 -9.02,-16.22 -16.54,-14.75 -13.54,-29.48 3.02,-14.72 -3,-29.48 -3,-29.48 0,0 -22.56,-38.29 -37.6,-54.52 -6.17,-6.63 -13.06,-15.36 -19.05,-24.41 -9.25,11.27 -17.26,24.32 -19.69,38.16 -6.77,38.99 -1.67,150.91 1.7,279.81 3.41,128.9 5.11,193.34 -5.07,237.43 -10.17,44.09 -73.11,215.15 -73.11,215.15 l 23.35,12.3 c 0,0 -45.22,137.17 -67.26,193.14 -22.05,55.96 -49.17,122.1 -49.17,122.1 0,0 28.82,6.77 28.82,22.04 0,15.24 13.57,37.29 23.75,49.16 10.17,11.88 69.01,86.02 94.43,128.41 25.45,42.39 54.7,88.15 49.6,132.24 -5.08,44.1 -44.07,161.12 -66.11,252.67 -22.05,91.59 -46.45,141.09 -73.57,154.64 -27.15,13.57 -90.83,22.27 -90.83,22.27 0,0 -11.88,103.46 -13.58,195.01 -1.7,91.58 -32.21,134.84 -47.49,157.72 -15.27,22.91 -42.39,15.27 -50.89,18.67 -19.02,7.61 -59.33,20.35 -101.72,-11.87 -42.42,-32.22 -62.77,-81.41 -76.34,-110.23 -13.55,-28.84 -27.12,-67.83 -33.92,-94.98 -6.77,-27.14 -5.07,-64.43 -5.07,-81.41 0,-16.94 -0.35,-64.52 -0.35,-64.52 0,0 -72.59,-1.61 -94.63,-15.19 -22.05,-13.54 -95.07,-77.54 -115.44,-102.99 -20.35,-25.45 -84.67,-94.66 -105.01,-116.71 -20.38,-22.04 -96.69,-109.3 -93.29,-144.89 3.4,-35.62 50.89,-62.77 100.06,-108.56 49.19,-45.79 149.24,-118.7 161.11,-123.8 11.88,-5.07 18.65,-8.47 18.65,-8.47 0,0 -22.05,-89.88 -45.79,-132.27 -23.75,-42.39 -50.86,-152.62 -57.66,-171.29 -6.78,-18.64 -36.4,-109.02 -36.4,-109.02 0,0 36.08,-14.63 51.32,-16.34 15.28,-1.7 44.12,-10.6 52.62,-14 8.48,-3.4 41.93,-17.49 41.93,-17.49 0,0 11.67,-43.06 11.67,-110.89 0,-67.84 1.73,-221.09 10.2,-309.3 8.51,-88.18 75.56,-233.56 82.34,-272.58 6.8,-39.02 3.28,-83.92 6.68,-100.89 3.37,-16.94 11.99,-50.06 8.59,-72.1 -3.4,-22.05 5.1,-69.54 11.87,-81.41 6.77,-11.87 55.96,-25.42 94.95,-32.22 39.02,-6.77 67.87,-8.47 73.81,3.4 5.9,11.88 5.9,28.82 5.9,28.82 0,0 13.58,15.27 6.8,25.45 -6.8,10.17 -3.4,16.11 1.7,27.14 5.08,11.01 -13.57,20.35 -13.57,35.62 0,15.24 3.4,15.24 -5.1,20.35 -8.47,5.07 -10.17,11.87 -20.34,11.87 h -20.35 c -8.47,0 -18.64,5.07 -18.64,5.07 0,0 -42.42,86.51 -54.3,132.3 -11.84,45.76 -20.34,257.77 -23.71,308.63 -3.4,50.89 -13.58,110.23 -1.7,130.57 11.87,20.38 18.64,37.32 18.64,87.35 0,50.03 -2.07,72.42 -0.37,92.76 1.7,20.38 -1.16,31.53 -1.16,31.53 0,0 23.35,-4.3 39.46,-11.1 16.1,-6.77 38.44,-9.1 65.58,-9.1 26.6,0 101.53,-3.14 101.53,-3.14 0,0 35.79,-45.82 69.71,-105.19 33.91,-59.36 50.86,-115.32 59.33,-145.84 8.5,-30.52 13.57,-133.97 16.97,-184.83 3.4,-50.9 38.99,-156.05 38.99,-205.21 0,-49.19 5.1,-96.68 5.1,-118.73 0,-22.05 3.4,-44.09 3.4,-44.09 0,0 -18.67,-8.47 -18.67,-18.64 0,-10.18 1.7,-23.75 11.87,-28.85 10.18,-5.07 71.24,-15.25 101.76,-27.12 30.54,-11.87 67.83,-25.44 110.22,-33.92 42.42,-8.47 76.34,16.95 84.81,25.45 8.48,8.47 -1.7,28.82 -11.87,28.82 -10.17,0 -23.75,3.4 -23.75,3.4 l -11.87,27.11 c 0,0 18.65,3.4 10.17,8.51 -8.47,5.07 -22.04,22.04 -22.04,22.04 0,0 -3.03,12.65 -8.82,16.63 6.83,1.5 12.51,3.46 15.65,6.19 13.54,11.79 24.09,20.64 28.59,20.64 4.52,0 76.74,2.94 75.24,20.63 -1.53,17.67 -6.02,51.55 -6.02,51.55 0,0 10.51,5.91 10.51,20.64 0,14.72 7.52,26.51 10.55,38.3 3,11.81 25.56,100.22 25.56,126.73 0,26.52 25.59,138.53 25.59,165.04 0,26.51 16.54,83.46 16.54,107.03 0,23.57 24.09,120.83 27.09,138.52 3.03,17.67 7.52,69.25 18.07,89.88 10.52,20.64 21.06,95.04 22.56,106.46 1.5,11.44 24.07,20.25 30.09,14.37 6.02,-5.9 15.04,-23.57 16.54,-38.32 1.53,-14.73 24.09,-100.2 27.09,-109.05 3.02,-8.82 28.58,-85.44 30.08,-97.23 1.53,-11.78 10.55,-67.8 18.07,-86.94 7.52,-19.16 24.06,-66.31 27.09,-76.62 3,-10.32 24.06,-62.82 27.06,-90.84 3.02,-27.98 28.59,-113.45 34.61,-126.71 6.02,-13.28 10.55,-59.68 12.04,-72.21 1.5,-12.54 -2.99,-41.27 4.53,-51.58 7.52,-10.32 30.08,-41.24 30.08,-41.24 0,-10.32 -6.02,-35.39 -4.52,-39.8 1.5,-4.41 1.5,-26.51 13.54,-29.48 12.05,-2.94 70.72,-5.88 85.76,-14.72 15.05,-8.85 28.59,-15.48 49.66,-17.67 21.06,-2.22 100.8,1.47 114.34,13.26 13.55,11.78 15.05,36.08 0,47.14 -15.04,11.04 -30.08,17.7 -54.14,35.36 -24.1,17.69 -25.59,20.63 -30.12,26.54 -4.49,5.88 -14.29,22.82 -14.29,22.82 l 6.77,6.63 c 0,0 -6.02,22.11 -15.04,38.33 -9.02,16.2 -35.1,26.51 -39.63,38.3 -4.49,11.78 -2.99,51.58 -10.52,73.68 -7.52,22.11 -13.54,69.25 -25.58,98.73 -12.05,29.45 -24.07,26.72 -25.57,53.98 -1.52,27.26 4.5,67.77 0,81.06 -4.52,13.26 -25.59,41.99 -25.59,67.78 0,25.76 12.05,75.12 7.53,98.73 -4.53,23.57 -18.04,109.01 -22.57,135.55 -4.52,26.51 -21.06,92.82 -21.06,92.82 l -4.53,38.33 35.13,4.41 c 0,0 -9.05,45.67 -9.8,51.58 -0.75,5.88 -5.27,45.68 -5.27,53.05 0,7.35 0.78,32.42 3.03,63.35 2.24,30.94 18.03,57.49 18.03,66.3 0,1.96 -0.4,5.1 -0.57,7.58 13.66,-1.93 23.63,-7.23 37.06,-7.23 16.22,0 26.8,13.63 26.8,13.63 0,0 23.28,5.3 49.65,16.14 26.4,10.83 42.65,46.02 42.65,46.02 l 81.21,18.93 -54.73,295.49 -148.15,-25.21 c -2.99,15.19 -6.91,31.41 -12.85,51.12 -15.04,50.11 -46.63,76.63 -58.67,82.53 -12.05,5.88 -82.74,27.99 -82.74,27.99 0,0 6.4,44.29 -1.06,45.99 -7.5,1.7 -42.08,2.74 -42.08,2.74 0,0 -15.82,24.06 -18.27,41.81 -2.45,17.78 -11.38,69.62 -11.38,69.62 0,0 18.65,18.62 17.03,39.31 -1.61,20.69 -5.47,41.44 -11.38,44.58 -5.94,3.11 -13.37,6.28 -13.37,6.28 M 1787.36,3827.3 c -1.7,-50.86 -22.04,-113.63 -22.04,-118.7 0,0 -22.48,5.42 -29.51,-2.04 -5.82,-6.17 -6.11,-9.83 -12.91,-21.7 -6.77,-11.88 -11.87,-27.15 -23.72,-35.62 -11.87,-8.47 -23.74,-27.15 -23.74,-27.15 0,0 -27.15,13.57 -78.04,61.07 -50.86,47.49 -70.11,89.65 -68.41,98.12 1.67,8.47 10.52,32.16 29.16,52.5 19.68,26.17 76.94,84.7 110.86,105.07 29.19,23.34 55.59,33.46 74.26,17.35 18.65,-16.11 45.79,-78.01 44.09,-128.9 m 369.7,-321.34 c 0,7.61 -15.27,7.61 -15.27,7.61 0,0 6.8,34.75 11.87,55.96 5.1,21.21 -3.4,91.58 8.47,159.42 11.88,67.83 42.42,179.76 42.42,179.76 0,0 34.5,-103.08 48.67,-136.13 7.41,-17.29 20.72,-70.03 19.17,-80.95 -3.4,-23.75 -94.98,-176.36 -98.38,-186.54 -3.38,-10.17 -16.95,-6.77 -16.95,0.87"
         style="fill:#f37121;fill-opacity:1;fill-rule:nonzero;stroke:none"
         id="path16"
         inkscape:connector-curvature="0" /></g></g></svg>